<?xml version="1.0" encoding="utf-8"?>
<svg xmlns="http://www.w3.org/2000/svg" height="24" width="24" viewBox="0 0 24 24">
  <g>
    <path id="path1" transform="rotate(0,12,12) translate(0,1.42052598002683) scale(0.750210880906245,0.750210880906245)  " fill="#000000" d="M22.806076,0C25.263056,-1.6872536E-07 27.573035,0.96900153 29.309014,2.7280039 32.885004,6.3500055 32.885004,12.245002 29.309014,15.867003L21.036101,24.247999C20.648104,24.642004 20.014105,24.644003 19.622111,24.258001 19.229109,23.870001 19.225111,23.235998 19.613108,22.843L27.886021,14.462005C30.697003,11.614005 30.697003,6.9810022 27.886021,4.1330026 26.528031,2.7580029 24.724059,1.9999996 22.806076,1.9999994 20.888092,1.9999996 19.085097,2.7580029 17.727106,4.1330026L9.4551701,12.514998C9.4521794,12.516005,9.4501957,12.519004,9.4481816,12.521003L3.2502331,18.801C1.5792567,20.493002 1.5792567,23.246 3.2502331,24.939001 4.0552196,25.755003 5.1242112,26.204 6.2611951,26.204 7.3901839,26.204 8.4531941,25.76 9.257173,24.954L23.749062,10.271003C24.280062,9.7340001 24.280062,8.8599995 23.749062,8.3240041 23.244061,7.8120035 22.369067,7.8120035 21.864067,8.3240041L6.973195,23.411001C6.5851979,23.803999 5.9512004,23.806997 5.5581979,23.420004 5.1652264,23.032003 5.1612286,22.398001 5.5492262,22.005003L20.440098,6.9179987C21.703087,5.6399988 23.910071,5.6389993 25.173062,6.9179987 26.467057,8.2300023 26.467057,10.364005 25.173062,11.676001L19.38609,17.538999C19.385113,17.539999,19.383099,17.541998,19.382092,17.542997L10.696157,26.344C10.690175,26.350004,10.684163,26.355001,10.678182,26.360998L10.28219,26.762998C10.188166,26.857 10.081172,26.929998 9.9661822,26.979002 8.8981976,27.774 7.6121978,28.204 6.2611951,28.204 4.5852141,28.204 3.010245,27.542997 1.8262336,26.344 -0.60874452,23.877005 -0.60874452,19.863005 1.8262336,17.395002L10.513175,8.5950001C10.515159,8.5930012,10.517173,8.5910023,10.519187,8.5890034L16.303137,2.7280039C18.040123,0.96900153,20.349095,-1.6872536E-07,22.806076,0z" />
  </g>
</svg>

