<?xml version="1.0" encoding="utf-8"?>
<svg xmlns="http://www.w3.org/2000/svg" height="24" width="24" viewBox="0 0 24 24">
  <g>
    <path id="path1" transform="rotate(0,12,12) translate(0,0.139499187469482) scale(0.75,0.75)  " fill="#000000" d="M5.8594971,1.9665499C5.8184967,1.96655,5.7774963,1.9870577,5.7359924,2.0280734L4.128006,3.6170603C2.7160034,5.013054 2,6.7449847 2,8.7669541 2,12.620951 4.5829926,17.384983 9.0879974,21.837001 14.175003,26.862995 19.188995,29.628004 23.212997,29.628004L23.214005,29.628004C25.201996,29.628004,26.912994,28.931961,28.300995,27.560991L29.953995,25.927938C29.983994,25.896932 30,25.86202 30,25.821981 30,25.780965 29.983994,25.745931 29.953995,25.716024L25.820999,21.632045C25.737991,21.550014,25.656998,21.550014,25.574005,21.632045L22.268005,24.899007C21.882996,25.279012 21.401001,25.47994 20.873993,25.47994 20.317993,25.47994 19.802002,25.253011 19.462006,25.081991 14.149994,22.000942 9.9799957,17.880952 6.6600037,12.458965 6.3800049,11.905011 5.7509918,10.638045 6.8099976,9.5920263L10.115997,6.3239647C10.145996,6.2940575 10.160995,6.2590233 10.160995,6.2189847 10.160995,6.1779691 10.145996,6.1419584 10.115997,6.1120511L5.9830017,2.0280734C5.9414978,1.9870577,5.9004974,1.96655,5.8594971,1.9665499z M5.8598747,0C6.4199982,3.6135316E-07,6.9799957,0.20202641,7.3889923,0.60607862L11.522003,4.6900564C11.934006,5.0970379 12.160995,5.6400057 12.160995,6.2189847 12.160995,6.7960101 11.934006,7.3389779 11.522003,7.7459594L8.2160034,11.013044C8.2189941,11.02696 8.2440033,11.160017 8.4080048,11.490948 11.507996,16.54697 15.449005,20.441984 20.414001,23.322961 20.701996,23.467004 20.839996,23.479944 20.873993,23.479944L24.167999,20.209928C24.985992,19.40097,26.408997,19.40097,27.227997,20.209928L31.360001,24.294029C31.772995,24.701011 32,25.243978 32,25.821981 32,26.399006 31.772995,26.941974 31.360001,27.348955L29.707001,28.982986C27.931,30.737987,25.746994,31.628002,23.214005,31.628002L23.212997,31.628002C18.658997,31.628002 13.145996,28.658035 7.6889954,23.264978 2.798996,18.433931 0,13.151957 0,8.7659775 0,6.2130033 0.8999939,4.0169617 2.677002,2.239987L2.6759949,2.239987 4.3300018,0.60607862C4.739502,0.20202641,5.2997513,3.6135316E-07,5.8598747,0z" />
  </g>
</svg>

