<?xml version="1.0" encoding="utf-8"?>
<svg xmlns="http://www.w3.org/2000/svg" height="24" width="24" viewBox="0 0 24 24">
  <g>
    <path id="path1" transform="rotate(0,12,12) translate(0,4.89412861150331) scale(0.749999642372302,0.749999642372302)  " fill="#000000" d="M30.000014,4.8530229L24.071006,8.022024 24.071006,10.994025 30.000014,14.163026z M2.0000001,1.9999995L2.0000001,16.949 21.978976,16.949 21.978,1.9999995z M2.0000001,0L21.978,0C23.080996,7.8724042E-08,23.978,0.89700301,23.978,1.9999995L23.978,5.8039373 32.000016,1.5170219 32.000016,17.499028 23.978,13.212112 23.978,16.949C23.978,18.051997,23.080996,18.949,21.978,18.949L2.0000001,18.949C0.89697274,18.949,0,18.051997,0,16.949L0,1.9999995C0,0.89700301,0.89697274,7.8724042E-08,2.0000001,0z" />
  </g>
</svg>

