<?xml version="1.0" encoding="utf-8"?>
<svg xmlns="http://www.w3.org/2000/svg" height="48" width="48" viewBox="0 0 48 48">
  <g>
    <path id="path1" transform="rotate(0,24,24) translate(6,6.00056111812592) scale(1.125,1.125)  " fill="#000000" d="M16.663379,16.955981C17.19538,17.101977 17.577388,17.311023 17.810392,17.582995 18.042388,17.855029 18.159392,18.178027 18.159392,18.554004 18.159392,18.975022 18.020393,19.340989 17.743388,19.652024 17.465387,19.962998 17.106383,20.158006 16.663379,20.236009z M15.381372,11.28698L15.381372,14.197011C14.997366,14.04003 14.711364,13.834036 14.523363,13.579031 14.334362,13.324026 14.23936,13.048025 14.23936,12.751028 14.23936,12.426017 14.342362,12.127982 14.549364,11.859 14.755367,11.590018 15.033369,11.398979 15.381372,11.28698z M15.381372,8.6210271L15.381372,9.4529963C14.366365,9.5490046 13.553354,9.90899 12.943353,10.533989 12.333347,11.158989 12.027346,11.931998 12.027346,12.851004 12.027346,13.76 12.297348,14.532033 12.837349,15.168996 13.377354,15.804981 14.224361,16.280017 15.381372,16.593982L15.381372,20.119004C15.062369,19.973008 14.773365,19.736985 14.514364,19.411973 14.25436,19.087022 14.07736,18.7 13.982358,18.251025L11.674342,18.486987C11.851341,19.592027 12.258346,20.447007 12.894353,21.051988 13.532354,21.658004 14.360363,22.020003 15.381372,22.137008L15.381372,23.668014 16.663379,23.668014 16.663379,22.095016C17.814389,21.937972 18.711398,21.512008 19.359399,20.817002 20.004409,20.121995 20.327409,19.265977 20.327409,18.251025 20.327409,17.343005 20.070403,16.598987 19.556399,16.017995 19.043403,15.437977 18.08039,14.965993 16.663379,14.601003L16.663379,11.312004C17.236381,11.548026,17.590388,11.997001,17.725391,12.658012L19.963407,12.379996C19.810407,11.538993 19.457399,10.868034 18.902394,10.36602 18.34839,9.8640071 17.602389,9.559991 16.663379,9.4529963L16.663379,8.6210271z M16.038375,6.0570026C21.552417,6.0570026 26.023452,10.527031 26.023452,16.041982 26.023452,21.556014 21.552417,26.025983 16.038375,26.025983 10.523332,26.025983 6.0532962,21.556014 6.0532962,16.041982 6.0532962,10.527031 10.523332,6.0570026 16.038375,6.0570026z M16.001371,2.6960428C8.8253204,2.7059918 2.9862749,8.3760319 2.7052707,15.486988 2.6912707,15.829029 2.6912707,16.173022 2.7052707,16.515002 2.9722749,23.261031 8.2463142,28.712993 14.918367,29.261027 15.619373,29.317973 16.323381,29.319987 17.024383,29.265971 23.543437,28.759013 28.741475,23.571029 29.263475,17.056995 29.318477,16.364978 29.319476,15.668995 29.265474,14.976979 28.733472,8.1080266 23.002433,2.7059918 16.001371,2.6960428z M16.011373,0C16.180373,1.2870169E-07 16.348375,0.0029908492 16.517381,0.0079956048 24.945441,0.27502433 31.730497,7.0629836 31.992499,15.494984 32.002502,15.835987 32.002502,16.176013 31.992499,16.517016 31.720494,25.113019 24.664441,31.999002 16.001371,31.999002 7.509309,31.999002 0.56225636,25.384992 0.032249871,17.028979 -0.010749957,16.343982 -0.010749957,15.658009 0.032249871,14.973012 0.5522541,6.7780104 7.2413088,0.25903315 15.505373,0.0079956048 15.674373,0.0029908492 15.842374,1.2870169E-07 16.011373,0z" />
  </g>
</svg>

