<?xml version="1.0" encoding="utf-8"?>
<svg xmlns="http://www.w3.org/2000/svg" height="48" width="48" viewBox="0 0 48 48">
  <g>
    <path id="path1" transform="rotate(0,24,24) translate(8.02499962151046,8) scale(1.0000001192093,1.0000001192093)  " fill="#000000" d="M6.0588669,9.2140673C2.8538021,13.922104 3.2548091,20.432154 7.461842,24.53819 11.66796,28.745223 18.078027,29.146218 22.786106,25.941199z M15.974969,4.006027C13.570942,4.006027,11.166914,4.7070368,9.1638941,6.1100472L25.890157,22.836173C29.095222,18.128136 28.69519,11.618085 24.488098,7.5120586 22.185085,5.1080406 19.080057,4.006027 15.974969,4.006027z M15.974969,0C20.081048,0 24.188104,1.603009 27.293191,4.7070368 33.502267,10.917084 33.502267,21.133164 27.293191,27.343211 21.083078,33.552256 10.866922,33.552256 4.6568078,27.343211 -1.5522693,21.133164 -1.5522693,10.917084 4.6568078,4.7070368 7.7618956,1.603009 11.868951,0 15.974969,0z" />
  </g>
</svg>

