<?xml version="1.0" encoding="utf-8"?>
<svg xmlns="http://www.w3.org/2000/svg" height="48" width="48" viewBox="0 0 48 48">
  <g>
    <path id="path1" transform="rotate(0,24,24) translate(8.20000076293945,8) scale(1,1)  " fill="#000000" d="M15.700024,14.5C14.399974,14.5 13.299997,15.600006 13.299997,16.900009 13.299997,18.199997 14.399974,19.300003 15.700024,19.300003 17.000012,19.300003 18.099989,18.199997 18.099989,16.900009 18.099989,15.600006 17.000012,14.5 15.700024,14.5z M12.299996,7.6000061L11.000008,8.3000031 13.799997,14.100006 15.099986,13.400009z M16.000012,3.1000061C8.7999936,3.1000061,2.8999654,9,2.7999898,16.199997L5.2000156,16.199997C5.2999917,10.300003 10.099982,5.5 16.000012,5.5 21.899979,5.5 26.599995,10.199997 26.700031,16.100006L29.099997,16.100006C29.000021,9,23.099993,3.1000061,16.000012,3.1000061z M15.799999,0C24.500017,0 31.599999,7.1999969 31.599999,16 31.599999,24.800003 24.500017,32 15.799999,32 7.0999805,32 -9.9833414E-08,24.800003 0,16 -9.9833414E-08,7.1999969 7.0999805,0 15.799999,0z" />
  </g>
</svg>

