<?xml version="1.0" encoding="utf-8"?>
<svg xmlns="http://www.w3.org/2000/svg" height="48" width="48" viewBox="0 0 48 48">
  <g>
    <path id="path1" transform="rotate(0,24,24) translate(7,7) scale(1.0625,1.0625)  " fill="#000000" d="M16.800049,11.699997C16.100037,11.699997 15.300049,12 14.300049,12.5 13.400024,13 12.400024,13.900002 11.300049,15.099998L10.900024,15.5 12.400024,16.699997 12.700012,16.400002C13.900024,15.300003 14.300049,15 14.400024,14.900002 12.900024,20.199997 12.100037,23.400002 12.100037,24.800003 12.100037,25.300003 12.300049,25.800003 12.600037,26.099998 12.900024,26.400002 13.400024,26.599998 13.900024,26.599998 14.400024,26.599998 15,26.400002 15.800049,26 16.5,25.599998 17.600037,24.699997 19,23.300003L19.400024,22.900002 18,21.5 17.600037,21.800003C16.300049,23 15.700012,23.400002 15.600037,23.599998 15.600037,23 15.900024,21.5 17.200012,17.099998 18.200012,13.599998 18.200012,13.300003 18.200012,13.099998 18.200012,12.699997 18,12.300003 17.700012,12.099998 17.600037,11.800003 17.200012,11.699997 16.800049,11.699997z M16.700012,5.5999985C15.5,5.5999985 14.5,6.5999985 14.5,7.8000031 14.5,9 15.5,10 16.700012,10 17.900024,10 18.900024,9 18.900024,7.8000031 18.900024,6.5 17.900024,5.5999985 16.700012,5.5999985z M16,0C24.800049,0 32,7.1999969 32,16 32,24.800003 24.800049,32 16,32 7.2000122,32 0,24.800003 0,16 0,7.1999969 7.2000122,0 16,0z" />
  </g>
</svg>

