<?xml version="1.0" encoding="utf-8"?>
<!-- Generator: Adobe Illustrator 21.0.0, SVG Export Plug-In . SVG Version: 6.00 Build 0)  -->
<svg version="1.1" id="Layer_1" xmlns="http://www.w3.org/2000/svg" xmlns:xlink="http://www.w3.org/1999/xlink" x="0px" y="0px"
	 viewBox="0 0 48 48" style="enable-background:new 0 0 48 48;" xml:space="preserve">
<g id="surface1">
	<path d="M11.2,8C9.4,8,8,9.4,8,11.2v19.2c0,1.8,1.4,3.2,3.2,3.2h22.4L40,40V11.2C40,9.4,38.6,8,36.8,8H11.2z M16.3,14.4h2.6
		L24,27.2h-3l-1-2.7h-4.9l-0.9,2.7h-3L16.3,14.4z M30.1,14.4h2.2v2.1h4.5v2.1c-0.3,2.8-1.6,4.8-3.6,6.3C33.8,25,34.3,25,35,25v2.2
		c-1.7,0-3.2-0.3-4.6-0.9c-1.5,0.6-3.4,0.9-4.8,0.9V25c0.6,0,1.7-0.1,2.4-0.2c-1.2-1.1-2.4-3.4-2.4-5h2.3c0,1.2,1.2,3.3,2.6,4.1
		c2.1-1,3.5-2.8,3.9-5.4h-8.8v-2.1h4.5V14.4z M17.6,17.6l-1.7,4.8h3.4L17.6,17.6z"/>
</g>
</svg>
