<?xml version="1.0" encoding="utf-8"?>
<svg xmlns="http://www.w3.org/2000/svg" height="48" width="48" viewBox="0 0 48 48">
  <g>
    <path id="path1" transform="rotate(0,24,24) translate(8,8) scale(1,1)  " fill="#000000" d="M4.7000122,21.5L4.7000122,25 25.200012,25 25.200012,21.5z M4.7000122,14.399994L4.7000122,17.899994 20.600037,17.899994 20.600037,14.399994z M4.7000122,7.3000031L4.7000122,10.800003 25.200012,10.800003 25.200012,7.3000031z M0.70001221,0L31.400024,0C31.700012,0,32,0.5,32,1L32,31C32,31.599991,31.700012,32,31.300049,32L0.70001221,32C0.30004883,32,0,31.5,0,31L0,1C0,0.5,0.30004883,0,0.70001221,0z" />
  </g>
</svg>

