<?xml version="1.0" encoding="utf-8"?>
<svg xmlns="http://www.w3.org/2000/svg" height="48" width="48" viewBox="0 0 48 48">
  <g>
    <path id="path1" transform="rotate(0,24,24) translate(6,12.2437502145767) scale(1.125,1.125)  " fill="#000000" d="M21.700012,0C22.5,-2.3627285E-07,23.200012,0.69999665,23.200012,1.4999995L23.200012,4.4000008 32,4.4000008 32,7.6999962 23.200012,7.6999962 23.200012,13.199996 32,13.199996 32,16.499998 23.200012,16.499998 23.200012,19.4C23.200012,20.199995 22.5,20.9 21.700012,20.9 20.900024,20.9 20.200012,20.199995 20.200012,19.4L20.200012,18.699995 15.100037,18.699995C11.900024,18.699995,9.3000488,16.099997,9.3000488,12.900001L9.3000488,12.099998 0,12.099998 0,8.7999947 9.3000488,8.7999947 9.3000488,7.9999993C9.3000488,4.7999947,11.900024,2.1999965,15.100037,2.1999965L20.200012,2.1999965 20.200012,1.4999995C20.200012,0.69999665,20.900024,-2.3627285E-07,21.700012,0z" />
  </g>
</svg>

