<?xml version="1.0" encoding="utf-8"?>
<svg xmlns="http://www.w3.org/2000/svg" height="48" width="48" viewBox="0 0 48 48">
  <g>
    <path id="path1" transform="rotate(0,24,24) translate(13.6690009034871,8) scale(0.999999880790725,0.999999880790725)  " fill="#000000" d="M10.631995,19.257848C9.5289974,19.257848 8.5260057,20.160827 8.5260057,21.364827 8.5260057,22.166824 9.0269985,22.968818 9.7289944,23.269811L9.7289944,26.178787 11.433997,26.178787 11.433997,23.269811C12.135994,22.968818 12.638008,22.166824 12.638008,21.364827 12.737999,20.160827 11.735007,19.257848 10.631995,19.257848z M10.331,2.4069641C7.5229998,2.4069641,5.2159915,4.9149406,5.2159915,8.0239261L5.2159915,11.032905C5.2159915,11.43491,5.2159915,11.734896,5.3159976,12.136901L15.446009,12.136901C15.547007,11.734896,15.547007,11.43491,15.547007,11.032905L15.547007,8.0239261C15.547007,4.9149406,13.239998,2.4069641,10.331,2.4069641z M10.331,0C14.142999,0,17.252008,3.4099472,17.252008,7.5229223L17.252008,11.534885 17.252008,12.236906C19.258007,12.737879,20.662001,14.744883,20.662001,17.051872L20.662001,27.081794C20.662001,29.78975,18.656002,31.996734,16.148996,31.996734L4.5130033,31.996734C2.0059981,32.096738,1.281287E-07,29.889756,0,27.18177L0,17.051872C1.281287E-07,14.744883,1.5039989,12.838891,3.4099905,12.236906L3.4099905,11.534885 3.4099905,7.5229223C3.4099905,3.4099472,6.519001,0,10.331,0z" />
  </g>
</svg>

