<?xml version="1.0" encoding="utf-8"?>
<svg xmlns="http://www.w3.org/2000/svg" height="48" width="48" viewBox="0 0 48 48">
  <g>
    <path id="path1" transform="rotate(0,24,24) translate(8.04999923706055,8) scale(1,1)  " fill="#000000" d="M25.620001,10.567001C24.123999,10.567001 22.928015,11.763 22.928015,13.259003 22.928015,14.753998 24.123999,15.950005 25.620001,15.950005L25.719,15.950005C27.114996,15.950005 28.411018,14.753998 28.411018,13.259003 28.411018,12.162003 27.713018,11.264999 26.716009,10.765999 26.317999,10.667 26.019018,10.567001 25.620001,10.567001z M6.0809951,10.567001C4.5859995,10.567001 3.3890083,11.763 3.3890085,13.259003 3.3890083,14.753998 4.5859995,15.950005 6.0809951,15.950005L6.2800002,15.950005C7.6759968,15.950005 8.9720173,14.753998 8.9720173,13.259003 8.9720173,12.162003 8.1740131,11.165001 7.27701,10.765999 6.7789931,10.667 6.3800063,10.567001 6.0809951,10.567001z M20.536016,3.5890045C18.941013,3.5890045 17.743992,4.7850037 17.743992,6.1809998 17.743992,6.9780045 18.143009,7.6760025 18.642002,8.0750046 18.841007,8.2740021 19.140018,8.473999 19.338993,8.572998 19.73801,8.7730026 20.136999,8.9720001 20.536016,8.9720001 22.031012,8.9720001 23.226995,7.776001 23.226995,6.2799988 23.226995,4.7850037 22.031012,3.5890045 20.536016,3.5890045z M11.563998,3.5890045C11.364017,3.5890045 11.265018,3.6880035 11.065005,3.6880035 9.7690144,3.8880005 8.6730061,4.8850021 8.6730061,6.2799988 8.6730061,7.776001 9.8689899,8.9720001 11.364017,8.9720001 12.162021,8.9720001 12.760013,8.6730042 13.257998,8.1740036 13.756991,7.6760025 14.15601,6.9780045 14.15601,6.2799988 14.15601,4.7850037 12.959018,3.5890045 11.563998,3.5890045z M15.950016,0C24.821997,0 31.900002,6.3800049 31.900002,14.155998 31.900002,19.139999 28.011999,23.028 23.028021,23.028L19.838017,23.028C18.44202,23.028 17.146,24.324005 17.146,25.720001 17.146,26.417 17.545017,26.916 17.843998,27.514 18.343021,28.012001 18.541996,28.611 18.541996,29.307999 18.541996,30.704002 17.346012,32 15.85001,32 7.0780048,31.900002 -5.2932592E-09,24.821999 0,15.950005 -5.2932592E-09,7.0780029 7.0780048,0 15.950016,0z" />
  </g>
</svg>

