<?xml version="1.0" encoding="utf-8"?>
<!-- Generator: Adobe Illustrator 21.0.0, SVG Export Plug-In . SVG Version: 6.00 Build 0)  -->
<svg version="1.1" id="Layer_1" xmlns="http://www.w3.org/2000/svg" xmlns:xlink="http://www.w3.org/1999/xlink" x="0px" y="0px"
	 viewBox="0 0 32 32" style="enable-background:new 0 0 32 32;" xml:space="preserve">
<g>
	<path id="path1" d="M5.7,0.9c-0.2,0-0.4,0-0.5,0c-0.4,0,1.4,0,1.1,0S5.8,0.9,5.7,0.9z M14.8,30.2l0.2-3.4v-0.4c0-0.4,0-0.9,0-1.3
		c0.1-0.4,0.2-0.7,0.5-1.1c1.7-3.3,2-4.1,3.8-6.5l0.2-0.2c0.4-0.5,0.7-1,1.3-1.4c0.5-0.3,0.9-0.6,1.4-0.9V3.9c-0.1,0-0.3,0-0.4,0
		c-0.4-0.1-0.7-0.3-1-0.5l-0.3-0.2c-0.2-0.1-0.5-0.3-0.7-0.4l-0.2-0.1c-1.1,0-1.2-0.1-2.3-0.1h-4.7H6.5C6.4,2.7,6.2,2.8,6.1,2.9
		C5.9,3,5.7,3.2,5.6,3.4C5.4,3.7,5.3,3.9,5.4,4.1l0.2,0.2l0.2,0.2C5.9,4.6,6,4.8,6,4.9h7.8v1.3H5.9L5.8,6.4c-0.3,0.9-1,1.1-1.3,1.2
		C4.4,7.6,4.2,7.8,4,8.1C3.9,8.3,3.8,8.5,3.8,8.5s0,0.2,0.1,0.4C4,9,4.2,9.3,4.4,9.6h7.8v1.3H4.5c-0.1,0.6-0.5,1-1.2,1.3
		c-0.4,0.2-0.6,0.4-0.7,0.7s0,0.7,0.2,0.8c0.1,0.1,0.4,0.4,0.5,0.9h8v1.3h-8C3.1,16.3,2.8,16.7,2,17c-0.3,0.2-0.5,0.4-0.6,0.7
		c-0.1,0.2,0,0.3,0,0.5c0,0.1,0.1,0.1,0.2,0.1h0.5h3.3c2.2,0,4.5,0,6.8,0H14l-0.6,2.6c-0.3,1.6-0.4,1.8-0.5,4
		c-0.1,1,0.2,1.8,0.6,2.9c0.2,0.7,0.5,1.4,0.9,2.1c0,0.1,0.1,0.1,0.1,0.2C14.6,30.1,14.7,30.2,14.8,30.2z M14.8,31.6
		c-0.3,0-0.5,0-0.8-0.1s-0.6-0.2-0.7-0.3s-0.2-0.5-0.3-0.7c-0.3-0.7-0.6-1.5-0.9-2.2c-0.4-1-0.7-2.1-0.7-3.4
		c0.2-2.6,0.4-3.1,0.9-5.3c-4.1,0-6,0-10,0c-0.3,0-0.6,0-0.8,0c-0.5-0.1-1-0.4-1.2-0.8c-0.3-0.4-0.4-1-0.2-1.6
		c0.2-0.8,0.7-1.3,1.4-1.7c0.2-0.1,0.5-0.1,0.6-0.4c0-0.2-0.1-0.4-0.2-0.5c-0.5-0.5-0.8-1.5-0.4-2.4c0.3-0.6,0.8-1.1,1.4-1.4
		c0.2-0.1,0.4-0.2,0.5-0.5c0-0.3-0.2-0.4-0.3-0.5C2.7,9.4,2.4,8.9,2.6,8.1c0.1-0.4,0.3-0.7,0.5-1c0.3-0.4,0.7-0.8,1.2-1
		C4.5,6,4.7,6,4.7,5.8c0.1-0.1,0.1-0.4,0-0.5S4.5,5.2,4.5,5.1C4.4,5,4.2,4.7,4.1,4.6C3.7,3.8,4.2,2.9,4.6,2.4
		c0.2-0.3,0.5-0.5,0.8-0.7s0.7-0.5,1.1-0.5c2.1,0,4.1,0,6.3,0c2.8,0,4.7-0.1,7.3,0c0.2,0,0.5,0.2,0.7,0.3c0.4,0.2,0.7,0.4,1.1,0.6
		c0.2,0.1,0.4,0.3,0.5,0.3c0.2,0,0.4,0,0.5,0V0.3h9v17.6h-9.3v-1.5c-0.3,0.2-0.6,0.4-1,0.7c-0.4,0.3-0.8,0.9-1.2,1.3
		c-1.9,2.5-2.1,3.4-3.7,6.3c-0.1,0.2-0.3,0.5-0.3,0.7c-0.1,0.4,0,1,0,1.4v3.5c0,0.2,0,0.5,0,0.7c-0.1,0.2-0.4,0.3-0.6,0.4
		C15.5,31.6,15.2,31.6,14.8,31.6z"/>
</g>
</svg>
