<?xml version="1.0" encoding="utf-8"?>
<!-- Generator: Adobe Illustrator 21.0.0, SVG Export Plug-In . SVG Version: 6.00 Build 0)  -->
<svg version="1.1" id="Layer_1" xmlns="http://www.w3.org/2000/svg" xmlns:xlink="http://www.w3.org/1999/xlink" x="0px" y="0px"
	 viewBox="0 0 24 24" style="enable-background:new 0 0 24 24;" xml:space="preserve">
<path id="path1" d="M1.5,18.8v1.5c0,0.4,0.3,0.8,0.8,0.8h19.5c0.4,0,0.8-0.3,0.8-0.8v-1.5 M9.8,7.8v5.3l1.4-0.9
	c1-0.6,1.9-1.2,2.9-1.8l-1-0.6C11.9,9.2,10.8,8.5,9.8,7.8z M9.4,6c0.2,0,0.4,0.1,0.6,0.2c1.3,0.8,2.6,1.6,3.9,2.4l1.5,1
	c0.5,0.3,0.7,1,0.4,1.5c-0.1,0.2-0.2,0.3-0.3,0.3l-0.1,0.1c-1.1,0.7-2.2,1.4-3.4,2.1l-2,1.3C9.8,14.9,9.6,15,9.4,15
	c-0.1,0-0.2,0-0.3,0c-0.3-0.1-0.6-0.3-0.7-0.6c-0.1-0.2-0.1-0.3-0.1-0.5V7.1C8.3,6.5,8.8,6,9.4,6z M22.5,17.3V3.8
	c0-0.4-0.3-0.8-0.8-0.8H2.3C1.8,3,1.5,3.3,1.5,3.8v13.5 M2.3,1.5h19.5c1.2,0,2.3,1,2.3,2.3v16.5c0,1.2-1,2.3-2.3,2.3H2.3
	c-1.2,0-2.3-1-2.3-2.3V3.8C0,2.5,1,1.5,2.3,1.5z"/>
</svg>
