<?xml version="1.0" encoding="utf-8"?>
<svg xmlns="http://www.w3.org/2000/svg" height="48" width="48" viewBox="0 0 48 48">
  <g>
    <path id="path1" transform="rotate(0,24,24) translate(4.28000116348267,4) scale(1.25,1.25)  " fill="#000000" d="M22.552007,6L28.252012,6C30.052,6,31.551998,7.5,31.551998,9.2999878L31.551998,17.399994C31.551998,18 31.051998,18.5 30.451992,18.5 29.851988,18.5 29.351988,18 29.351988,17.399994L29.351988,10.099976 28.752012,10.099976 28.752012,30.299988C28.752012,31.099976 28.052002,31.799988 27.252014,31.799988 26.451996,31.799988 25.752016,31.099976 25.752016,30.299988L25.752016,18.599976 25.052004,18.599976 25.052004,30.299988C25.052004,31.099976 24.351993,31.799988 23.552006,31.799988 22.752018,31.799988 22.052007,31.099976 22.052007,30.299988L22.052007,10.099976 21.452001,10.099976 21.452001,17.399994C21.452001,18 20.952001,18.5 20.351997,18.5 19.752022,18.5 19.252022,18 19.252022,17.399994L19.252022,9.2999878C19.152015,7.5,20.652015,6,22.552007,6z M5.3520119,5.7999878L9.4770152,5.7999878C9.4770152,5.7999878 9.4785783,5.7999878 9.4817035,5.7999878 9.4848287,5.7999878 9.489516,5.7999878 9.4957664,5.7999878 9.5020168,5.7999878 9.5098302,5.7999878 9.5192058,5.7999878 9.5285814,5.7999878 9.5395191,5.7999878 9.5520198,5.7999878 9.8520076,5.7999878 12.052017,5.8999939 12.752028,8.5999756L14.852002,15.899994C15.052014,16.599976 14.65202,17.099976 14.052015,17.299988 13.45201,17.5 12.852004,17.199982 12.652023,16.599976L10.652025,9.5 10.052019,9.5 13.552016,21.699982 10.252031,21.699982 10.252031,30.699982C10.252031,31.399994 9.6520259,32 8.9520137,32 8.3520086,32 7.6520278,31.399994 7.6520278,30.699982L7.6520278,21.799988 7.1520283,21.799988 7.1520283,30.699982C7.1520283,31.399994 6.4520166,32 5.8520114,32 5.1520302,32 4.5520246,31.399994 4.5520246,30.699982L4.5520246,21.699982 1.2520403,21.699982 4.8520124,9.5 4.2520373,9.5 2.2520392,16.599976C2.0520272,17.099976 1.4520218,17.399994 0.85201626,17.299988 0.2520413,17.099976 -0.1479827,16.599976 0.052029442,15.899994L2.1520331,8.5999756C2.9520202,5.8999939,5.1520302,5.7999878,5.3520119,5.7999878z M25.451998,0.099975586C27.152008,0.099975586 28.451994,1.2999878 28.451994,2.6999817 28.451994,4.0999756 27.152008,5.2999878 25.451998,5.2999878 23.752018,5.2999878 22.452001,4.0999756 22.452001,2.6999817 22.452001,1.2999878 23.752018,0.099975586 25.451998,0.099975586z M7.4520156,0C9.1520259,0 10.452013,1.1999817 10.452013,2.5999756 10.452013,4 9.1520259,5.1999817 7.4520156,5.1999817 5.7520358,5.1999817 4.452019,4 4.452019,2.5999756 4.452019,1.1999817 5.8520114,0 7.4520156,0z" />
  </g>
</svg>

