<?xml version="1.0" encoding="utf-8"?>
<svg xmlns="http://www.w3.org/2000/svg" height="48" width="48" viewBox="0 0 48 48">
  <g>
    <path id="path1" transform="rotate(0,24,24) translate(14.8725017309189,4) scale(1.25,1.25)  " fill="#000000" d="M9.2791441,5.9995852C9.5457447,5.9992218,11.701983,6.081274,12.451998,8.8000183L14.551966,16C14.751978,16.700012 14.351985,17.200012 13.751981,17.400024 13.151976,17.600006 12.551972,17.300018 12.451998,16.700012L10.451989,9.7000122 9.9519909,9.7000122 13.451994,21.900024 10.151987,21.900024 10.151987,30.800018C10.151987,31.5 9.551998,32 8.8519886,32 8.2519997,32 7.5520051,31.400024 7.5520051,30.700012L7.5520051,21.800018 7.0520066,21.800018 7.0520066,30.700012C7.0520066,31.400024 6.3519967,32 5.7520078,32 5.0520132,32 4.4520095,31.400024 4.4520095,30.800018L4.4520095,21.900024 1.1520175,21.900024 4.6520055,9.7000122 4.1520074,9.7000122 2.1520141,16.700012C1.9520179,17.200012 1.3520138,17.5 0.85201539,17.400024 0.25202666,17.200012 -0.14798112,16.700012 0.052030466,16L2.1520141,8.8000183C2.8520087,6.1000061 5.0520132,6 5.2520097,6 5.2520097,6 5.2582591,6 5.2660707,6L5.2807177,6 5.2895063,6 5.2941931,6 5.2959507,6 9.2519959,6C9.2519959,6,9.2613705,5.9996095,9.2791441,5.9995852z M7.3519934,0C8.8519886,0 10.051996,1.2000122 10.051996,2.6000061 10.051996,4 8.8519886,5.2000122 7.3519934,5.2000122 5.8519986,5.2000122 4.6520055,4 4.6520055,2.6000061 4.6520055,1.2000122 5.8519986,0 7.3519934,0z" />
  </g>
</svg>

