<?xml version="1.0" encoding="utf-8"?>
<svg xmlns="http://www.w3.org/2000/svg" height="48" width="48" viewBox="0 0 48 48">
  <g>
    <path id="path1" transform="rotate(0,24,24) translate(16.1249997615814,4) scale(1.25,1.25)  " fill="#000000" d="M3.3999968,5.8999939L9.2000034,5.8999939C11.099999,5.8999939,12.6,7.3999939,12.6,9.2999878L12.6,17.399994C12.6,18 12.099999,18.5 11.500008,18.5 10.900002,18.5 10.400001,18 10.400001,17.399994L10.400001,10.099976 9.7000044,10.099976 9.7000044,30.5C9.7000044,31.299988 9.0000065,32 8.0999964,32 7.2999933,32 6.5999959,31.299988 6.5999959,30.5L6.5999959,18.699982 6.0000046,18.699982 6.0000046,30.5C6.0000046,31.299988 5.2999919,32 4.3999971,32 3.5000027,32 2.8999961,31.299988 2.8999963,30.5L2.8999963,10.099976 2.2999898,10.099976 2.2999898,17.399994C2.2999895,18 1.7999893,18.5 1.1999978,18.5 0.50000054,18.5 1.7868479E-07,18 0,17.399994L0,9.2999878C1.7868479E-07,7.3999939,1.5000013,5.8999939,3.3999968,5.8999939z M6.2999924,0C7.7999933,0 9.0000065,1.1999817 9.0000065,2.5999756 9.0000065,4 7.7999933,5.1999817 6.2999924,5.1999817 4.7999914,5.1999817 3.5999935,4 3.5999938,2.5999756 3.5999935,1.1999817 4.7999914,0 6.2999924,0z" />
  </g>
</svg>

