<?xml version="1.0" encoding="utf-8"?>
<svg xmlns="http://www.w3.org/2000/svg" height="48" width="48" viewBox="0 0 48 48">
  <g>
    <path id="path1" transform="rotate(0,24,24) translate(4,8.6875) scale(1.25,1.25)  " fill="#000000" d="M22.800003,15.900002L27.5,15.900002 27.5,24.5 22.800003,24.5z M4.3999939,15.900002L9.0999985,15.900002 9.0999985,24.5 4.3999939,24.5z M15.599991,0C24.5,0,32,7.3000031,32,16L32,20.200005 29.899994,20.200005 29.899994,16C29.899994,8.5 23.399994,2.0999985 15.599991,2.0999985 8.0999985,2.0999985 2.0999985,8.2000046 2.0999985,16L2.0999985,20.200005 0,20.200005 0,16C0,7,6.8999939,0,15.599991,0z" />
  </g>
</svg>

