<?xml version="1.0" encoding="utf-8"?>
<svg xmlns="http://www.w3.org/2000/svg" height="48" width="48" viewBox="0 0 48 48">
  <g>
    <path id="path1" transform="rotate(0,24,24) translate(9.96449958854909,6) scale(1.12500013411047,1.12500013411047)  " fill="#000000" d="M14.072999,21.71989L14.173005,21.71989 23.954012,21.71989 23.954012,30.402982C23.954012,31.300994,23.255007,31.999997,22.356997,31.999997L14.072999,31.999997z M1.2980041,21.71989L11.178987,21.71989 11.178987,31.999997 2.8949892,31.999997C1.9960022,31.999997,1.2980041,31.300994,1.2980041,30.402982z M19.661989,3.2556945C19.06299,3.2556945,14.072999,7.3477336,12.975007,8.545744L12.975007,8.8447515C13.674012,8.6447526 15.670015,7.1477343 17.267,6.1497227 19.162996,5.0517112 19.962008,3.7546926 19.661989,3.2556945z M5.5889899,3.2556945C5.3899848,3.7546926 6.1879889,5.0517112 7.984986,6.2497221 9.4819957,7.2477342 11.578004,8.6447526 12.277009,8.9447509L12.277009,8.6447526C11.178987,7.3477336,6.287995,3.2556945,5.5889899,3.2556945z M17.864281,0.00017286225C18.476668,-0.0068490629 19.175909,0.19928326 19.962008,0.76066515 22.756014,2.6566814 22.656008,4.2536984 22.656008,5.2517105 22.157015,7.447733 19.463015,8.4457446 16.868014,8.9447509L23.355013,8.9447509C24.252993,8.9447509,24.951998,9.6427566,24.951998,10.541768L24.951998,13.235797C24.951998,13.834803,24.553011,14.433808,24.053988,14.633815L24.053988,19.723867 14.173005,19.723867 14.173005,9.3437568 13.574006,9.3437568 13.075013,9.3437568 12.675996,9.3437568 12.277009,9.3437568 11.578004,9.3437568 11.477998,9.3437568 11.178987,9.3437568 11.178987,19.723867 1.2980041,19.723867 1.2980041,14.732815C0.59899889,14.533815,-2.3291432E-07,13.934802,0,13.136797L0,10.441769C-2.3291432E-07,9.5437566,0.69900499,8.8447515,1.5969848,8.8447515L8.4840099,8.8447515C5.8890082,8.545744 3.0939943,7.447733 2.6950075,5.2517105 2.6950075,4.353706 2.5950014,2.7566885 5.3899848,0.76066515 6.0889899,0.261659 6.7869879,0.061659901 7.385987,0.061660053 8.9830028,0.061659901 10.080995,1.4586705 10.480012,1.8586761 10.878999,2.2576827 12.076997,4.452706 12.675996,6.6487285 13.274995,4.452706 14.471986,2.2576827 14.871003,1.8586761 15.301535,1.4281411 16.29929,0.018116923 17.864281,0.00017286225z" />
  </g>
</svg>

