<?xml version="1.0" encoding="utf-8"?>
<svg xmlns="http://www.w3.org/2000/svg" height="48" width="48" viewBox="0 0 48 48">
  <g>
    <path id="path1" transform="rotate(0,24,24) translate(4,9.87499976158142) scale(1.25,1.25)  " fill="#000000" d="M5.0999756,10.699998C4.1999512,10.699998 3.3999634,11.400003 3.3999634,12.400003 3.3999634,13.299997 4.0999756,14.1 5.0999756,14.1L8.0999756,14.1C9,14.1 9.7999878,13.400003 9.7999878,12.400003 9.7999878,11.500002 9.0999756,10.699998 8.0999756,10.699998z M20.699951,6.9000024C23.699951,6.9000024 26.199951,9.4000024 26.199951,12.400003 26.199951,15.400003 23.699951,17.900004 20.699951,17.900004 17.699951,17.900004 15.199951,15.400003 15.199951,12.400003 15.199951,9.4000024 17.699951,6.9000024 20.699951,6.9000024z M20.899963,4.8999986C16.799988,4.8999986 13.5,8.1999978 13.5,12.299997 13.5,16.400004 16.799988,19.7 20.899963,19.7 25,19.7 28.299988,16.400004 28.299988,12.299997 28.299988,8.2999963 25,4.8999986 20.899963,4.8999986z M3.6999512,0L9.6999512,0 9.6999512,2.0999989 30.399963,2.0999989C31.299988,2.0999989,32,2.7999996,32,3.6999974L32,21.000003C32,21.900004,31.299988,22.600001,30.399963,22.600001L1.5999756,22.600001C0.69995117,22.600001,0,21.900004,0,21.000003L0,3.6999974C0,2.7999996,0.69995117,2.0999989,1.5999756,2.0999989L3.6999512,2.0999989z" />
  </g>
</svg>

