<?xml version="1.0" encoding="utf-8"?>
<svg xmlns="http://www.w3.org/2000/svg" height="48" width="48" viewBox="0 0 48 48">
  <g>
    <path id="path1" transform="rotate(0,24,24) translate(6,9.80024921894073) scale(1.125,1.125)  " fill="#000000" d="M24.384003,6.886012C28.591003,6.886012 32,10.295006 32,14.500996 32,17.215992 30.576004,19.59099 28.438004,20.939987L29.923004,25.244001 25.665009,22.000992C25.248001,22.071976 24.822006,22.116989 24.384003,22.116989 20.178009,22.116989 16.768997,18.706987 16.768997,14.500996 16.768997,10.295006 20.178009,6.886012 24.384003,6.886012z M0,0L24.384003,0 24.384003,4.3460053C18.785004,4.3460053 14.229004,8.9020022 14.229004,14.500996 14.229004,15.638996 14.417007,16.73299 14.764008,17.754991L14.84201,17.977983 8.3619995,17.977983 4.2320099,24.178999 4.2320099,17.977983 0,17.977983z" />
  </g>
</svg>

