<?xml version="1.0" encoding="utf-8"?>
<svg xmlns="http://www.w3.org/2000/svg" height="48" width="48" viewBox="0 0 48 48">
  <g>
    <path id="path1" transform="rotate(0,24,24) translate(4,7.8349986076355) scale(1.25,1.25)  " fill="#000000" d="M11.622986,14.714998L13.727997,14.714998 13.722992,14.720003 17.440002,14.720003 17.446991,14.714998 20.121002,14.714998 20.11499,14.720003 26.59201,14.720003C26.605988,14.886003 26.613983,15.054003 26.613983,15.224001 26.613983,19.522997 22.225006,23.123005 16.338989,24.050007L16.248993,24.063007 16.303986,24.080006C17.528992,24.481998,18.360992,25.127003,18.480988,25.864002L8.2019958,25.864002C8.321991,25.127003,9.1549988,24.481998,10.380005,24.080006L10.43399,24.063007 10.343994,24.050007C4.4580078,23.123005 0.070007324,19.522997 0.070007324,15.224001 0.070007324,15.054003 0.07699585,14.886003 0.089996338,14.720003L11.618011,14.720003z M23.494995,0L24.772003,1.029007 15.889008,12.035997 20.906006,12.035997 30.997009,4.2209934 32,5.5160073 23.579987,12.035997 26.682007,12.035997 26.682007,13.42 0,13.42 0,12.035997 13.783997,12.035997z" />
  </g>
</svg>

