<?xml version="1.0" encoding="utf-8"?>
<!-- Generator: Adobe Illustrator 21.0.0, SVG Export Plug-In . SVG Version: 6.00 Build 0)  -->
<svg version="1.1" xmlns="http://www.w3.org/2000/svg" xmlns:xlink="http://www.w3.org/1999/xlink" x="0px" y="0px"
	 viewBox="0 0 48 48" style="enable-background:new 0 0 48 48;" xml:space="preserve">
<g id="Layer_1">
	<image style="overflow:visible;" width="48" height="48" xlink:href="friendships.png" >
	</image>
</g>
<g id="Layer_2">
	<g>
		<path id="path1_1_" d="M27,13.1c3.3,0,6.1,3.4,6.1,7.6c0,3.5-1.8,6-4.1,7.2c-0.3,0.2-0.8,0.6-0.8,1.1c0,0.5,0.5,0.9,0.8,1
			c5,1.8,9.3,4.2,11.1,9.1H14c1.7-5,6.1-7.2,11-9.1c0.2-0.1,0.7-0.5,0.7-1c0-0.4-0.4-0.8-0.7-1c-2.4-1.3-4.1-3.7-4.1-7.3
			C20.9,16.5,23.7,13.1,27,13.1z"/>
	</g>
</g>
<g id="Layer_2_copy">
	<g>
		<path d="M22.6,28.7C19.2,30.2,16,32,13.8,35H7c1.7-5,6.1-7.2,11-9.1c0.2-0.1,0.7-0.5,0.7-1c0-0.4-0.4-0.8-0.7-1
			c-2.4-1.3-4.1-3.7-4.1-7.3c0-4.2,2.8-7.6,6.1-7.6c1.8,0,3.4,1,4.5,2.5c-3.2,1.3-5.6,4.8-5.6,9.1C18.9,24,20.2,26.9,22.6,28.7z"/>
	</g>
</g>
</svg>
