<?xml version="1.0" encoding="utf-8"?>
<svg xmlns="http://www.w3.org/2000/svg" height="48" width="48" viewBox="0 0 48 48">
  <g>
    <path id="path1" transform="rotate(0,24,24) translate(4,10.3125002384186) scale(1.25,1.25)  " fill="#000000" d="M25.899994,16.899997C25.200012,16.899997 24.700012,17.399999 24.700012,18.100011 24.700012,18.800008 25.200012,19.300008 25.899994,19.300008 26.600006,19.300008 27.100006,18.800008 27.100006,18.100011 27.100006,17.500005 26.5,16.899997 25.899994,16.899997z M28.399994,14.500003C27.700012,14.500003 27.200012,15.000004 27.200012,15.700001 27.200012,16.399997 27.700012,16.899997 28.399994,16.899997 29.100006,16.899997 29.600006,16.399997 29.600006,15.700001 29.600006,15.10001 29,14.500003 28.399994,14.500003z M23.300018,14.500003C22.600006,14.500003 22.100006,15.000004 22.100006,15.700001 22.100006,16.399997 22.600006,16.899997 23.300018,16.899997 24,16.899997 24.5,16.399997 24.5,15.700001 24.5,15.10001 23.899994,14.500003 23.300018,14.500003z M25.800018,11.800006C25.100006,11.800006 24.600006,12.300006 24.600006,13.000003 24.600006,13.7 25.100006,14.2 25.800018,14.2 26.5,14.2 27,13.7 27,13.000003 27,12.399997 26.5,11.800006 25.800018,11.800006z M6.3000183,10.600008L6.3000183,10.800005C6,10.800005,5.8000183,11.000003,5.8000183,11.300006L5.8000183,14.000003 3.1000061,14.000003C2.8000183,14.000003,2.6000061,14.2,2.6000061,14.500003L2.6000061,15.500004C2.6000061,15.700001,2.8000183,16.000004,3.1000061,16.000004L5.8000183,16.000004 5.8000183,18.700002C5.8000183,18.800008,6,19.000005,6.3000183,19.000005L7.3000183,19.000005C7.6000061,19.000005,7.8000183,18.800008,7.8000183,18.500005L7.8000183,15.800007 10.5,15.800007C10.800018,15.800007,11,15.60001,11,15.300007L11,14.300006C11,14.100009,10.800018,13.800006,10.5,13.800006L7.8000183,13.800006 7.8000183,11.100009C7.8000183,10.800005,7.6000061,10.600008,7.3000183,10.600008z M16.100006,6.8999954C17.5,6.8999954,18.700012,7.6999985,19.100006,8.8999959L26.100006,8.8999959C26.200012,8.8999959 26.300018,8.8999959 26.399994,9.000002 29.600006,9.500002 32,12.100009 32,15.399998 32,19.000005 29.100006,21.899999 25.399994,21.899999 22.800018,21.899999 20.600006,20.500005 19.600006,18.399999L12.399994,18.399999C11.300018,20.500005 9.1000061,21.899999 6.6000061,21.899999 3,21.899999 0,19.000005 0,15.399998 0,12.000003 2.6000061,9.199999 6,9.000002L6.1000061,9.000002 13.100006,9.000002C13.5,7.6999985,14.700012,6.8999954,16.100006,6.8999954z M22,0C22,0.10000601 22.100006,1.1999971 21.399994,2.1999975 20.899994,2.8999945 20.100006,3.1999975 19.100006,3.3999945 18.200012,3.5000008 17.5,3.8000039 17.100006,4.3000041 16.700012,4.899995 16.800018,5.5000011 16.800018,5.5000011L16.200012,5.699998C16.200012,5.699998 16,4.8000041 16.600006,4.0000011 17,3.1999975 17.899994,2.8000036 19,2.6999975 19.800018,2.6000067 20.5,2.3000034 20.899994,1.8000035 21.5,1.1000062 21.399994,0.10000601 21.399994,0.1000061z" />
  </g>
</svg>

