<?xml version="1.0" encoding="utf-8"?>
<svg xmlns="http://www.w3.org/2000/svg" height="48" width="48" viewBox="0 0 48 48">
  <g>
    <path id="path1" transform="rotate(0,24,24) translate(8,8.26498739341081) scale(0.999969125747255,0.999969125747255)  " fill="#000000" d="M26.239272,30.727988C26.416276,30.727988 26.592303,30.728996 26.765279,30.728996 27.125329,30.728996 25.376285,30.765983 25.705268,30.728996 25.884286,30.727988 26.062268,30.727988 26.239272,30.727988z M17.090173,1.4741405L16.935203,4.9081132 16.948205,5.3081052C16.968164,5.7111184 16.991174,6.1681168 16.912192,6.6021049 16.843162,6.9911105 16.664205,7.299123 16.440202,7.686114 14.727169,10.953096 14.440178,11.828091 12.65915,14.186081L12.495147,14.410079C12.14413,14.88908 11.747091,15.430062 11.173109,15.836066 10.68409,16.179052 10.280093,16.453067 9.793088,16.778047L9.793088,27.920995C9.9210797,27.929998 10.046082,27.945989 10.169069,27.968999 10.580085,28.049016 10.890086,28.256993 11.19313,28.458011L11.488115,28.636996C11.7311,28.786012,11.950096,28.916993,12.203152,29.057006L12.450103,29.192992C13.545148,29.238006,13.648115,29.251006,14.799131,29.251006L19.459222,29.227996 25.520269,29.247985C25.640266,29.195007 25.850289,29.045013 25.928294,28.987001 26.110303,28.855989 26.284316,28.688997 26.449296,28.491 26.685323,28.209996 26.774312,27.945989 26.674275,27.752998L26.437272,27.582008 26.275283,27.35801C26.178296,27.224008,26.115308,27.079997,26.060315,26.936015L18.259194,26.936015 18.259194,25.648029 25.991283,25.648029 26.042308,25.450031C26.349319,24.599021 27.047326,24.381036 27.316312,24.298028 27.387296,24.269036 27.582305,24.129024 27.803317,23.811032 27.951329,23.594022 28.021337,23.422027 28.032323,23.372039 28.042333,23.325042 28.06632,23.197021 27.885287,23.018037 27.775302,22.914033 27.537322,22.658023 27.371305,22.284032L19.576226,22.284032 19.576226,20.996043 27.276332,20.996043C27.426297,20.43605 27.808322,19.996049 28.463298,19.685046 28.834334,19.498035 29.099353,19.24706 29.211354,18.982045 29.340324,18.679038 29.187306,18.32705 29.060351,18.194057 28.941331,18.070064 28.680341,17.768064 28.53831,17.326049L20.586249,17.326049 20.586249,16.037053 28.584333,16.037053C28.757308,15.620064 29.122302,15.188059 29.882321,14.949078 30.219361,14.793073 30.409366,14.57707 30.496343,14.247085 30.547368,14.05806 30.532353,13.908067 30.447331,13.768084 30.399356,13.692064 30.330325,13.632068 30.222352,13.626086L29.674312,13.640063 26.388322,13.642078C24.141284,13.642078,21.894248,13.63808,19.623225,13.622089L17.812167,13.607074 18.370219,11.021089C18.785201,9.1181137 18.901231,8.8960993 19.026233,6.7390978 19.082202,5.7831089 18.811202,4.9191301 18.45219,3.8881297 18.216226,3.2111311 17.903173,2.4681234 17.601167,1.7971371 17.573211,1.7341489 17.545196,1.664142 17.501189,1.5501288 17.327176,1.4951365 17.206203,1.4741405 17.090173,1.4741405z M17.066186,0.00014894005C17.335172,-0.0028417148 17.614167,0.039150259 17.90421,0.13116018 18.168189,0.21514423 18.481181,0.3221383 18.623212,0.47915047 18.754195,0.6271294 18.84221,0.9581519 18.949205,1.1991481 19.265187,1.9011402 19.594232,2.6861398 19.844235,3.4021399 20.200196,4.4231302 20.573249,5.5421126 20.499211,6.8241193 20.348208,9.4141018 20.106202,9.9510872 19.634212,12.14709 23.715255,12.178096 25.613288,12.165096 29.674312,12.165096 29.948361,12.165096 30.233338,12.132076 30.482366,12.165096 31.020335,12.239069 31.449357,12.583092 31.703389,12.997091 31.97335,13.435078 32.092372,13.994065 31.921348,14.630079 31.711385,15.416055 31.203382,15.961065 30.504338,16.286077 30.266358,16.400058 29.961362,16.391055 29.914365,16.70206 29.880307,16.941072 30.024352,17.066072 30.154359,17.20407 30.636359,17.714048 30.941356,18.681052 30.569341,19.558032 30.302371,20.18904 29.768306,20.677045 29.130298,21.000041 28.913316,21.10905 28.686322,21.175029 28.671308,21.500039 28.661298,21.755042 28.834334,21.881049 28.955308,22.002019 29.313344,22.354037 29.622308,22.934022 29.479362,23.658017 29.409354,24.012019 29.190358,24.395013 29.021348,24.64202 28.757308,25.022023 28.357339,25.469012 27.865329,25.666003 27.631318,25.759019 27.506316,25.736009 27.429288,25.950029 27.376309,26.090011 27.360318,26.341018 27.47232,26.496015 27.539336,26.586011 27.643281,26.619001 27.712312,26.689008 27.850314,26.833019 28.014318,27.05302 28.082311,27.193002 28.497294,28.036992 28.006322,28.929994 27.580291,29.437986 27.341336,29.726011 27.078332,29.975002 26.796285,30.179986 26.495317,30.39898 26.107312,30.670005 25.715278,30.723991 23.648236,30.719993 21.583209,30.702995 19.459222,30.702995 16.615192,30.702995 14.808164,30.774986 12.178126,30.657981 11.993127,30.652 11.708089,30.467004 11.502093,30.355005 11.118116,30.142999 10.825083,29.958003 10.434087,29.723996 10.269107,29.622983 10.048096,29.447995 9.8890973,29.41699 9.7230797,29.385986 9.534112,29.402982 9.348075,29.411008L9.348075,31.470996 0,31.470996 0,13.770067 9.348075,13.770067 9.348075,15.301066C9.6680861,15.085063 9.9791251,14.873059 10.325077,14.630079 10.774118,14.313064 11.131117,13.76607 11.479143,13.301076 13.358133,10.813082 13.608136,9.9120857 15.13318,7.0011203 15.251162,6.7791059 15.428166,6.5281002 15.460149,6.3471014 15.533148,5.9391138 15.460149,5.3571159 15.460149,4.9081132L15.460149,1.3101397C15.460149,1.0731415 15.41016,0.76015487 15.460149,0.61013117 15.517157,0.43715846 15.880137,0.30013525 16.071179,0.21914221 16.389176,0.081142227 16.720174,0.0031397 17.066186,0.00014894005z" />
  </g>
</svg>

