<?xml version="1.0" encoding="utf-8"?>
<svg xmlns="http://www.w3.org/2000/svg" height="48" width="48" viewBox="0 0 48 48">
  <g>
    <path id="path1" transform="rotate(0,24,24) translate(4,8.81250047683716) scale(1.25,1.25)  " fill="#000000" d="M25.299988,5.3000141C26,5.3000141,26.5,5.8000136,26.5,6.4999949L26.5,6.600001C26.600006,6.4999949 26.799988,6.4000193 26.899994,6.4000193 27.200012,6.4000193 27.5,6.7000071 27.5,6.9999944 27.5,7.3000127 27.200012,7.6 26.899994,7.6L26.700012,7.6 26.700012,7.7000061C26.700012,8.0999995 26.399994,8.4000178 26.100006,8.4000178 26.100006,8.7000056 25.899994,8.9000178 25.600006,8.9999925 25.399994,9.0999986 25.200012,9.0999986 25,8.9999925 24.799988,9.3000108 24.399994,9.5999986 24,9.5999986 23.399994,9.5999986 22.899994,9.0999986 22.799988,8.4999934 22,8.4999934 21.299988,7.8000122 21.299988,6.9999944 21.299988,6.2000071 22,5.4999958 22.799988,5.4999958 23.299988,5.4999958 23.700012,5.7000075 24,6.1000014 24.299988,5.7000075 24.799988,5.3000141 25.299988,5.3000141z M2.6000061,2.4000226L2.6000061,19.599991C4,19.499985,6.7000122,19.300003,7.8999939,19.300003L9,19.300003C10.100006,18.699997 10,16.800005 9.8999939,15.900012 9.6000061,16.099993 9.2000122,16.199999 8.7999878,16.199999 8.1000061,16.199999 7.5,15.900012 7.2000122,15.400012 7,15.400012 6.8999939,15.499988 6.7000122,15.499988 5.6000061,15.499988 4.7000122,14.599995 4.7000122,13.49999 4.7000122,12.400015 5.6000061,11.499991 6.7000122,11.499991L6.7999878,11.499991C6.7999878,11.30001 6.7000122,11.099998 6.7000122,10.999992 6.7000122,9.9000169 7.6000061,8.9999925 8.7000122,8.9999925 8.7000122,7.9000183 9.6000061,6.9999944 10.700012,6.9999944 11.700012,6.9999944 12.5,7.7000061 12.600006,8.5999995L13,8.5999995C14.100006,8.5999995 15,9.4999925 15,10.599998 15,10.80001 15,10.900016 14.899994,11.099998 15.100006,10.999992 15.299988,10.999992 15.5,10.999992 16.600006,10.999992 17.5,11.900015 17.5,12.99999 17.5,14.099995 16.700012,14.900013 15.600006,14.999989 15.299988,15.7 14.600006,16.099993 13.799988,16.099993 13.399994,16.099993 13,15.999988 12.700012,15.800006 12.399994,15.999988 12,16.099993 11.700012,16.099993 11.5,18.300003 12.399994,19.199997 12.799988,19.499985 13.299988,19.499985 13.799988,19.499985 14.299988,19.400009 16.600006,19.199997 17.399994,18.499985 18.799988,18.400009L20.299988,18.300003C20.299988,18.300003 21.399994,17.300005 22.899994,16.900011 24.299988,16.400011 26.600006,16.800005 27.399994,16.900011 27.899994,16.999987 28.700012,16.900011 29.200012,16.800005L29.200012,2.4000226z M0,0L32,0 32,24.299999 0,24.299999z" />
  </g>
</svg>

