<?xml version="1.0" encoding="utf-8"?>
<svg xmlns="http://www.w3.org/2000/svg" height="48" width="48" viewBox="0 0 48 48">
  <g>
    <path id="path1" transform="rotate(0,24,24) translate(8,8.28050138238081) scale(1.00000005960465,1.00000005960465)  " fill="#000000" d="M15.3,1.5393677L15.1,4.9393253 15.1,5.3393211C15.2,5.739316 15.2,6.2393093 15.1,6.6393042 15,7.0393 14.8,7.3392954 14.6,7.7392912 12.9,11.039249 12.6,11.83924 10.8,14.23921L10.6,14.439207C10.3,14.939201 9.9000001,15.439195 9.3000002,15.83919 8.8000002,16.139186 8.4000001,16.439182 7.9000001,16.739179L7.8,27.539043 8.1999998,27.539043C8.5999999,27.639043,8.9000001,27.83904,9.1999998,28.039038L9.5,28.239035C9.6999998,28.339034,9.9000001,28.539031,10.2,28.63903L10.4,28.739029C11.5,28.739029 20.2,28.63903 20.2,28.63903 20.599999,28.539031 20.900001,28.239035 20.999999,27.83904L20.999999,15.339196 22.900001,15.339196 29.599999,15.339196 29.999999,15.339196C30.400001,15.339196,30.7,15.0392,30.7,14.639205L31.099999,14.639205 31.099999,14.339209C31.099999,13.939213,30.8,13.639217,30.400001,13.639217L16.1,13.639217 16.6,11.139248C17.1,9.2392721 17.2,9.0392742 17.3,6.8393021 17.3,5.8393145 17.1,4.9393253 16.7,3.9393377 16.4,3.2393465 16.1,2.5393553 15.8,1.839365 15.8,1.839365 15.7,1.7393665 15.7,1.6393661 15.5,1.5393677 15.4,1.5393677 15.3,1.5393677z M14.938672,0.00010490417C15.206641,0.0026683807 15.493751,0.051885605 15.8,0.13938522 16,0.13938522 16.4,0.2393837 16.5,0.43938255 16.6,0.53938103 16.7,0.93937492 16.8,1.1393738 17.1,1.839365 17.5,2.6393547 17.7,3.3393459 18.1,4.3393335 18.5,5.4393196 18.4,6.7393036 18.2,9.3392706 18,9.8392649 17.5,12.039237L29.7,12.039237 30.499999,12.039237C30.999999,12.039237 31.400001,12.439232 31.7,12.839227 31.999999,13.239222 31.999999,14.23921 31.999999,14.839202 31.900001,15.939188 31.400001,16.439182 30.599999,16.539181 28.8,16.739179 23.3,16.839177 22.499999,16.839177L22.499999,27.939039C22.3,29.039025 21.400001,29.939013 20.2,30.039013 20.2,30.039013 11.7,30.23901 10.1,30.139011 9.9000001,30.139011 9.5999999,29.939013 9.4000001,29.839015 9,29.639018 8.6999998,29.43902 8.3000002,29.239022 8.1999998,29.139024 8,28.939027 7.8,28.939027L7.3999999,28.939027 7.3999999,31.438995 7.3,31.438995 0,31.438995 0,13.739216 0,13.539218 7.3,13.539218 7.3,15.239197C7.5999999,15.0392 7.9000001,14.839202 8.1999998,14.639205 8.6999998,14.339209 9.0999999,13.839215 9.4000001,13.339221 11.3,10.839252 11.6,9.9392633 13.1,7.0393 13.2,6.7393036 13.4,6.5393057 13.4,6.3393078 13.5,5.9393129 13.4,5.4393196 13.4,4.9393253L13.4,1.3393707 13.4,0.6393795C13.4,0.43938255 13.8,0.33938217 14,0.2393837 14.28125,0.070636749 14.594141,-0.0031909943 14.938672,0.00010490417z" />
  </g>
</svg>

