<?xml version="1.0" encoding="utf-8"?>
<svg xmlns="http://www.w3.org/2000/svg" height="48" width="48" viewBox="0 0 48 48">
  <g>
    <path id="path1" transform="rotate(0,24,24) translate(4,9.625) scale(1.25,1.25)  " fill="#000000" d="M12.400024,6.6000061L12.400024,16.400009 20.600037,11.5z M0,0L32,0 32,3.4000092 28.900024,3.4000092 28.900024,6.9000092 32,6.9000092 32,9.9000092 28.900024,9.9000092 28.900024,13.400009 32,13.400009 32,16.300003 28.900024,16.300003 28.900024,19.800003 32,19.800003 32,23 0,23 0,19.800003 3.4000244,19.800003 3.4000244,16.300003 0,16.300003 0,13.400009 3.4000244,13.400009 3.4000244,9.9000092 0,9.9000092 0,6.9000092 3.4000244,6.9000092 3.4000244,3.4000092 0,3.4000092z" />
  </g>
</svg>

