<?xml version="1.0" encoding="utf-8"?>
<!-- Generator: Adobe Illustrator 21.0.0, SVG Export Plug-In . SVG Version: 6.00 Build 0)  -->
<svg version="1.1" id="Layer_1" xmlns="http://www.w3.org/2000/svg" xmlns:xlink="http://www.w3.org/1999/xlink" x="0px" y="0px"
	 viewBox="0 0 24 24" style="enable-background:new 0 0 24 24;" xml:space="preserve">
<g>
	<path id="path1" d="M5.2,14.9c1.9,1.4,4.3,2.2,6.8,2.2c2.5,0,4.9-0.8,6.8-2.2c-1.5,2.1-4,3.5-6.8,3.5C9.2,18.4,6.7,17,5.2,14.9z
		 M15.7,8.3c1,0,1.9,0.8,1.9,1.9c0,1-0.8,1.9-1.9,1.9s-1.9-0.8-1.9-1.9C13.9,9.1,14.7,8.3,15.7,8.3z M8.3,8.3c1,0,1.9,0.8,1.9,1.9
		c0,1-0.8,1.9-1.9,1.9c-1,0-1.9-0.8-1.9-1.9C6.4,9.1,7.2,8.3,8.3,8.3z M12,1.9C6.4,1.9,1.9,6.4,1.9,12c0,5.6,4.5,10.1,10.1,10.1
		S22.1,17.6,22.1,12C22.1,6.4,17.6,1.9,12,1.9z M12,0c6.6,0,12,5.4,12,12s-5.4,12-12,12S0,18.6,0,12S5.4,0,12,0z"/>
</g>
</svg>
