<?xml version="1.0" encoding="utf-8"?>
<!-- Generator: Adobe Illustrator 21.0.0, SVG Export Plug-In . SVG Version: 6.00 Build 0)  -->
<svg version="1.1" id="Layer_1" xmlns="http://www.w3.org/2000/svg" xmlns:xlink="http://www.w3.org/1999/xlink" x="0px" y="0px"
	 viewBox="0 0 24 24" style="enable-background:new 0 0 24 24;" xml:space="preserve">
<g>
	<path id="path1" d="M12,9.2c-2.1,0-3.8,1.7-3.8,3.8s1.7,3.8,3.8,3.8s3.8-1.7,3.8-3.8S14.1,9.2,12,9.2z M12,7.7
		c2.9,0,5.3,2.4,5.3,5.2s-2.4,5.3-5.3,5.3S6.8,15.9,6.8,13S9.1,7.7,12,7.7z M7.3,3.4L5.9,6.7C5.8,6.9,5.6,7.1,5.3,7.1h-3
		c-0.4,0-0.8,0.3-0.8,0.8v12c0,0.4,0.3,0.8,0.8,0.8h19.5c0.4,0,0.8-0.3,0.8-0.8v-12c0-0.4-0.3-0.8-0.8-0.8h-3
		c-0.3,0-0.6-0.2-0.7-0.5l-1.3-3.3H7.3z M6.8,1.9h10.5c0.3,0,0.6,0.2,0.7,0.5l1.3,3.3h2.5c1.2,0,2.3,1,2.3,2.3v12
		c0,1.2-1,2.3-2.3,2.3H2.3c-1.2,0-2.3-1-2.3-2.3v-12c0-1.2,1-2.3,2.3-2.3h2.5l1.3-3.3C6.2,2.1,6.4,1.9,6.8,1.9z"/>
</g>
</svg>
