<?xml version="1.0" encoding="utf-8"?>
<!-- Generator: Adobe Illustrator 21.0.0, SVG Export Plug-In . SVG Version: 6.00 Build 0)  -->
<svg version="1.1" id="Layer_1" xmlns="http://www.w3.org/2000/svg" xmlns:xlink="http://www.w3.org/1999/xlink" x="0px" y="0px"
	 viewBox="0 0 32 32" style="enable-background:new 0 0 32 32;" xml:space="preserve">
<style type="text/css">
	.st0{fill:#4B58B2;}
</style>
<g id="surface1">
	<path class="st0" d="M5.1,1c-2,0-3.6,1.6-3.6,3.6v17.1c0,2,1.6,3.6,3.6,3.6h3.6V31l8.7-5.8h10.5c2,0,3.6-1.6,3.6-3.6v-17
		c0-2-1.6-3.6-3.6-3.6C27.9,1,5.1,1,5.1,1z M5.1,3.4h22.8c0.7,0,1.2,0.5,1.2,1.2v17.1c0,0.7-0.5,1.2-1.2,1.2H16.6L11,26.6v-3.7H5
		c-0.7,0-1.2-0.5-1.2-1.2V4.6C3.9,3.9,4.4,3.4,5.1,3.4z"/>
</g>
</svg>
