<?xml version="1.0" encoding="utf-8"?>
<!-- Generator: Adobe Illustrator 21.0.0, SVG Export Plug-In . SVG Version: 6.00 Build 0)  -->
<svg version="1.1" id="Layer_1" xmlns="http://www.w3.org/2000/svg" xmlns:xlink="http://www.w3.org/1999/xlink" x="0px" y="0px"
	 viewBox="0 0 32 32" style="enable-background:new 0 0 32 32;" xml:space="preserve">
<style type="text/css">
	.st0{fill:#4B58B2;}
</style>
<g>
	<path id="path1" class="st0" d="M26.2,31c0.2,0,0.4,0,0.5,0c0.4,0-1.4,0-1.1,0C25.9,31,26.1,31,26.2,31z M17.1,1.7l-0.2,3.4l0,0.4
		c0,0.4,0,0.9,0,1.3c-0.1,0.4-0.2,0.7-0.5,1.1c-1.7,3.3-2,4.1-3.8,6.5l-0.2,0.2c-0.4,0.5-0.7,1-1.3,1.4c-0.5,0.3-0.9,0.6-1.4,0.9
		v11.1c0.1,0,0.3,0,0.4,0c0.4,0.1,0.7,0.3,1,0.5l0.3,0.2c0.2,0.1,0.5,0.3,0.7,0.4l0.2,0.1c1.1,0,1.2,0.1,2.3,0.1l4.7,0l6.1,0
		c0.1-0.1,0.3-0.2,0.4-0.3c0.2-0.1,0.4-0.3,0.5-0.5c0.2-0.3,0.3-0.5,0.2-0.7l-0.2-0.2l-0.2-0.2c-0.1-0.1-0.2-0.3-0.2-0.4h-7.8v-1.3
		H26l0.1-0.2c0.3-0.9,1-1.1,1.3-1.2c0.1,0,0.3-0.2,0.5-0.5c0.1-0.2,0.2-0.4,0.2-0.4c0,0,0-0.2-0.1-0.4c-0.1-0.1-0.3-0.4-0.5-0.7
		h-7.8v-1.3h7.7c0.1-0.6,0.5-1,1.2-1.3c0.4-0.2,0.6-0.4,0.7-0.7c0.1-0.3,0-0.7-0.2-0.8c-0.1-0.1-0.4-0.4-0.5-0.9h-8v-1.3h8
		c0.2-0.4,0.5-0.8,1.3-1.1c0.3-0.2,0.5-0.4,0.6-0.7c0.1-0.2,0-0.3,0-0.5c0-0.1-0.1-0.1-0.2-0.1l-0.5,0l-3.3,0c-2.2,0-4.5,0-6.8,0
		l-1.8,0l0.6-2.6C18.8,9.4,18.9,9.2,19,7c0.1-1-0.2-1.8-0.6-2.9c-0.2-0.7-0.5-1.4-0.9-2.1c0-0.1-0.1-0.1-0.1-0.2
		C17.3,1.8,17.2,1.7,17.1,1.7z M17.1,0.3c0.3,0,0.5,0,0.8,0.1c0.3,0.1,0.6,0.2,0.7,0.3c0.1,0.1,0.2,0.5,0.3,0.7
		c0.3,0.7,0.6,1.5,0.9,2.2c0.4,1,0.7,2.1,0.7,3.4c-0.2,2.6-0.4,3.1-0.9,5.3c4.1,0,6,0,10,0c0.3,0,0.6,0,0.8,0c0.5,0.1,1,0.4,1.2,0.8
		c0.3,0.4,0.4,1,0.2,1.6c-0.2,0.8-0.7,1.3-1.4,1.7c-0.2,0.1-0.5,0.1-0.6,0.4c0,0.2,0.1,0.4,0.2,0.5c0.5,0.5,0.8,1.5,0.4,2.4
		c-0.3,0.6-0.8,1.1-1.4,1.4c-0.2,0.1-0.4,0.2-0.5,0.5c0,0.3,0.2,0.4,0.3,0.5c0.4,0.4,0.7,0.9,0.5,1.7c-0.1,0.4-0.3,0.7-0.5,1
		c-0.3,0.4-0.7,0.8-1.2,1c-0.2,0.1-0.4,0.1-0.4,0.3c-0.1,0.1-0.1,0.4,0,0.5c0.1,0.1,0.2,0.1,0.2,0.2c0.1,0.1,0.3,0.4,0.4,0.5
		c0.4,0.8-0.1,1.7-0.5,2.2c-0.2,0.3-0.5,0.5-0.8,0.7c-0.3,0.2-0.7,0.5-1.1,0.5c-2.1,0-4.1,0-6.3,0c-2.8,0-4.7,0.1-7.3,0
		c-0.2,0-0.5-0.2-0.7-0.3c-0.4-0.2-0.7-0.4-1.1-0.6c-0.2-0.1-0.4-0.3-0.5-0.3c-0.2,0-0.4,0-0.5,0v2.1H0V14h9.3v1.5
		c0.3-0.2,0.6-0.4,1-0.7c0.4-0.3,0.8-0.9,1.2-1.3c1.9-2.5,2.1-3.4,3.7-6.3c0.1-0.2,0.3-0.5,0.3-0.7c0.1-0.4,0-1,0-1.4V1.6
		c0-0.2,0-0.5,0-0.7c0.1-0.2,0.4-0.3,0.6-0.4C16.4,0.3,16.7,0.3,17.1,0.3z"/>
</g>
</svg>
