<?xml version="1.0" encoding="utf-8"?>
<!-- Generator: Adobe Illustrator 21.0.0, SVG Export Plug-In . SVG Version: 6.00 Build 0)  -->
<svg version="1.1" id="Layer_1" xmlns="http://www.w3.org/2000/svg" xmlns:xlink="http://www.w3.org/1999/xlink" x="0px" y="0px"
	 viewBox="0 0 32 32" style="enable-background:new 0 0 32 32;" xml:space="preserve">
<style type="text/css">
	.st0{fill:none;}
	.st1{fill:#4B58B2;}
</style>
<g transform="">
	<g>
		<path class="st0" d="M0,32V0h32v32H0z"/>
		<g>
			<g id="surface1">
				<path class="st1" d="M10.1,4l2,2.7h5.3c4.4,0,8,3.6,8,8V20h-4l5.3,7.3L32,20h-4v-5.3C28,8.8,23.2,4,17.3,4H10.1z M5.3,4.7L0,12
					h4v5.3C4,23.2,8.8,28,14.7,28h7.2l-2-2.7h-5.3c-4.4,0-8-3.6-8-8V12h4L5.3,4.7z"/>
			</g>
		</g>
	</g>
</g>
</svg>
